<svg id="en1jx7tacVl1" xmlns="http://www.w3.org/2000/svg" xmlns:xlink="http://www.w3.org/1999/xlink" viewBox="0 0 16 16" shape-rendering="geometricPrecision" text-rendering="geometricPrecision" project-id="16f82e251fbf4596b346eed43cfbce43" export-id="4a1607d4d08440c1900b168b986cc05c" cached="false"><defs><linearGradient id="en1jx7tacVl2-stroke" x1="0" y1="0.5" x2="1" y2="0.5" spreadMethod="pad" gradientUnits="objectBoundingBox" gradientTransform="translate(0 0)"><stop id="en1jx7tacVl2-stroke-0" offset="0%" stop-color="#57370d"/><stop id="en1jx7tacVl2-stroke-1" offset="100%" stop-color="#e5bf5e"/></linearGradient><linearGradient id="en1jx7tacVl3-stroke" x1="0" y1="0.5" x2="1" y2="0.5" spreadMethod="pad" gradientUnits="objectBoundingBox" gradientTransform="translate(0 0)"><stop id="en1jx7tacVl3-stroke-0" offset="0%" stop-color="#57370d"/><stop id="en1jx7tacVl3-stroke-1" offset="100%" stop-color="#e5bf5e"/></linearGradient><linearGradient id="en1jx7tacVl4-fill" x1="-0.21756" y1="0.5" x2="0.5" y2="0.5" spreadMethod="reflect" gradientUnits="objectBoundingBox" gradientTransform="translate(0 0)"><stop id="en1jx7tacVl4-fill-0" offset="0%" stop-color="#57370d"/><stop id="en1jx7tacVl4-fill-1" offset="100%" stop-color="#e5bf5e"/></linearGradient></defs><path d="M1.1892,5.78074c0-1.794923,1.455077-3.25,3.25-3.25s3.25,1.455077,3.25,3.25c0,0,0,0,0,0v3.25h-3.25c-1.794923,0-3.25-1.455077-3.25-3.25Z" transform="translate(-.538799-1.03074)" fill="none" stroke="url(#en1jx7tacVl2-stroke)"/><path d="M1.1892,5.78074c0-1.794923,1.455077-3.25,3.25-3.25s3.25,1.455077,3.25,3.25c0,0,0,0,0,0v3.25h-3.25c-1.794923,0-3.25-1.455077-3.25-3.25Z" transform="matrix(-1 0 0 1 16.532331-1.03074)" fill="none" stroke="url(#en1jx7tacVl3-stroke)"/><path d="M2.87876,9.04661h10.24249L7.99999,14.73807L2.87876,9.04661ZM8,13.15l2.62-2.91h-5.24L8,13.15Z" fill="url(#en1jx7tacVl4-fill)" stroke-width="0"/></svg>
